<svg height="506pt" viewBox="0 -21 506.35787 506" width="506pt" xmlns="http://www.w3.org/2000/svg"><path d="m491.878906 111.703125c.277344 4.378906-1.679687 8.753906-6.617187 8.570313-7.636719-.375-28.132813-13.695313-39.6875-19.660157-1.210938-.652343-2.328125-1.210937-3.355469-1.675781-.09375-.09375-.1875-.09375-.371094-.1875 3.519532-12.179688 1.808594-25.273438-4.714844-36.144531-.875-1.347657-.984374-3.054688-.292968-4.503907.6875-1.453124 2.082031-2.441406 3.679687-2.617187 6.558594-.671875 12.800781-3.175781 18.003907-7.226563 1.398437 3.074219 3.078124 6.242188 4.289062 9.222657.464844 1.023437 1.300781 2.609375 1.953125 4.097656.050781.050781.085937.117187.09375.1875.28125.746094.558594 1.582031.839844 2.328125 1.398437 3.726562 2.609375 6.894531 3.074219 8.011719 1.117187 2.789062 2.421874 5.5 3.914062 8.105469 4.285156 7.269531 10.898438 12.859374 15.277344 20.125 2.203125 3.414062 3.546875 7.316406 3.914062 11.367187zm0 0" fill="#e57e25"/><path d="m491.617188 357.386719c-14.941407 62.027343-82.171876 79.738281-105.757813 84.101562-6.882813 1.261719-13.765625 2.519531-20.648437 3.863281-61.824219 11.441407-125.050782 13.226563-187.421876 5.285157-77.304687-10.488281-126.996093-48.429688-151.25-78.140625-7.625-8.589844-13.472656-18.601563-17.207031-29.460938-6.210937-24.59375 26.773438-3.609375 54.554688-3.609375 6.253906-.003906 12.480469-.765625 18.550781-2.265625.765625-.128906 1.519531-.296875 2.265625-.503906 6.394531-1.738281 12.542969-4.277344 18.296875-7.554688-.167969-.085937-.417969-.25-.585938-.335937-18.632812-9.734375-15.277343-22.578125 11.917969-20.3125 27.550781 1.246094 55.144531-1.296875 82.003907-7.554687-28.152344 3.457031-56.675782 2.464843-84.519532-2.9375-9.320312-1.507813-18.367187-4.363282-26.859375-8.476563-10.109375-4.21875-18.363281-11.9375-23.25-21.738281-3.105469-8.226563 1.175781-13.933594 12.335938-11.078125 17.4375 3.566406 35.109375 5.867187 52.878906 6.878906-21.003906-2.800781-40.976563-10.820313-58.082031-23.332031-7.554688-5.589844-14.160156-12.363282-19.554688-20.058594-.085937 0-.167968-.167969-.167968-.167969-11.585938-17.039062-10.746094-31.308593-2.769532-26.441406 16.367188 9.90625 75.539063 23.335937 115.074219 29.292969 4.277344.671875 8.390625 1.257812 12.167969 1.679687 30.71875 3.777344 95.519531-15.023437 152.929687-3.359375.082031 0 .167969.085938.25.085938h.167969c14.128906 2.703125 27.714844 7.722656 40.207031 14.855468 7.035157 4.070313 13.691407 8.761719 19.890625 14.019532 10.070313 8.472656 18.691406 18.539062 25.515625 29.792968 1.953125 3.082032 3.722657 6.277344 5.289063 9.570313-1.34375 11.164063-3.273438 23.5-3.609375 25.769531-1.230469 11-6.75 21.074219-15.359375 28.03125-3.792969 2.695313-4.695313 7.949219-2.015625 11.753906 1.5625 2.203126 4.097656 3.515626 6.800781 3.523438 1.75.011719 3.460938-.546875 4.867188-1.59375 10.539062-7.863281 17.921874-19.234375 20.816406-32.0625v-.253906c.082031-.25.082031-.503906.167968-.753906l.167969-1.175782c.40625-2.390625.6875-4.800781.839844-7.21875l.082031-1.007812c.699219-13.484375-.171875-27.003906-2.601562-40.289063-6.296875-37.097656-38.441406-82.589843-67.484375-143.441406-29.039063-60.855469-6.628907-99.96875 14.351562-114.65625 20.984375-14.6875 46.5-5.957031 66.058594 7.640625 1.929687 1.339844 3.691406 2.601562 5.371094 3.691406 10.578125 7.46875 16.285156 12.003906 19.136719 21.824219-14.351563 8.308594-39.363282 5.453125-39.363282 5.453125 11.550782 10.117188 17.097656 25.460938 14.6875 40.625-11.566406-5.246094-22.152344-12.429688-31.308594-21.234375-1.726562-1.734375-3.609374-3.308594-5.621093-4.699219-11.753907-7.808594-19.140625 1.171875-18.46875 17.625.671875 18.882813 9.738281 34.664063 49.269531 89.894532 39.535156 55.3125 75.207031 104.917968 56.992188 180.457031zm0 0" fill="#cfd8dc"/><path d="m429.339844 324.90625v-.253906c.082031-.25.082031-.503906.167968-.753906l.167969-1.175782c.40625-2.390625.6875-4.800781.839844-7.21875l.082031-1.007812c.699219-13.484375-.171875-27.003906-2.601562-40.289063-6.296875-37.097656-38.441406-82.589843-67.484375-143.441406-29.039063-60.855469-6.628907-99.96875 14.351562-114.65625 20.984375-14.6875 46.5-5.957031 66.058594 7.640625 1.929687 1.339844 3.691406 2.601562 5.371094 3.691406.421875.921875 15.023437 19.808594 15.277343 20.816406-10.421874 5.28125-21.894531 8.148438-33.574218 8.390626 15.863281 15.867187 10.070312 24.425781 8.394531 33.574218-4.367187-2.097656-23-18.464844-27.953125-21.652344-.988281-.527343-1.941406-1.117187-2.851562-1.765624-4.867188-3.273438-6.632813 11.164062-11.164063 6.632812-15.023437-15.023438-9.148437-2.097656-8.394531 16.785156.671875 18.886719-9.0625 12.507813 30.46875 67.738282 39.535156 55.3125 75.207031 104.917968 56.992187 180.457031-14.941406 62.027343-82.171875 79.738281-105.757812 84.101562-6.882813 1.261719-13.765625 2.519531-20.648438 3.863281-61.824219 11.441407-125.050781 13.222657-187.425781 5.285157-49.339844-5.796875-95.757812-26.429688-133.117188-59.171875-7.625-8.589844-13.472656-18.601563-17.207031-29.460938-6.210937-24.59375 26.773438-3.609375 54.554688-3.609375 6.253906-.003906 12.480469-.765625 18.550781-2.265625.765625-.128906 1.519531-.296875 2.265625-.503906 6.394531-1.738281 12.542969-4.277344 18.296875-7.554688-.167969-.085937-.417969-.25-.585938-.335937-18.632812-9.734375-15.277343-22.578125 11.917969-20.3125 27.550781 1.246094 55.144531-1.296875 82.003907-7.554687-28.152344 3.457031-56.675782 2.464843-84.519532-2.9375-9.320312-1.507813-18.367187-4.363282-26.859375-8.476563 3.738281-.339844 7.503907-.339844 11.246094 0 27.550781 1.246094 55.144531-1.296875 82.003906-7.554687-28.152343 3.457031-56.675781 2.464843-84.523437-2.9375-11.257813-1.753907-22.097656-5.566407-31.976563-11.246094-3.105469-8.226563 1.175781-13.933594 12.335938-11.078125 17.4375 3.566406 35.109375 5.867187 52.878906 6.878906-21.003906-2.800781-40.976563-10.820313-58.082031-23.332031 11.835937 1.929687 26.441406 3.359375 39.953125 4.363281-21.609375-2.871094-42.113281-11.285156-59.507813-24.421875-.085937 0-.167968-.167969-.167968-.167969-11.585938-17.039062-10.746094-31.308593-2.769532-26.441406 16.367188 9.90625 75.539063 23.335937 115.074219 29.292969 4.277344.671875 8.390625 1.257812 12.167969 1.679687 30.71875 3.777344 95.519531-15.023437 152.929687-3.359375.082031 0 .167969.085938.25.085938h.167969c14.128906 2.703125 27.714844 7.722656 40.207031 14.855468 7.035157 4.070313 13.691407 8.761719 19.890625 14.019532 4.90625 6.351562 9.152344 13.183594 12.675782 20.394531l12.839843 9.398437c1.953125 3.082032 3.722657 6.277344 5.289063 9.570313zm0 0" fill="#f5f5f5"/><path d="m326.519531 221.160156c-57.410156-11.664062-122.210937 7.136719-152.929687 3.359375-3.777344-.421875-7.890625-1.007812-12.167969-1.679687-35.253906-15.191406-72.4375-36.007813-84.859375-75.035156-.839844-2.601563-1.929688-6.464844.921875-8.144532 3.441406-2.011718 10.074219 1.765625 13.011719 3.105469 9.476562 4.789063 18.59375 10.257813 27.277344 16.367187 52.460937 35.171876 67.148437 35.671876 140.757812 45.410157 23.351562 2.1875 46.257812 7.789062 67.988281 16.617187zm0 0" fill="#7f8e94"/><path d="m237.355469 416.601562c-2.152344.015626-4.304688-.109374-6.441407-.378906-9.738281-1.328125-12.664062-6.074218-13.402343-9.820312-1.097657-5.570313 2.164062-10.621094 9.707031-14.980469 17.058594-10.921875 32.738281-23.863281 46.695312-38.542969 7.722657-7.859375 13.597657-14.410156 16.210938-17.328125l1.148438-1.277343c3.125-3.429688 8.4375-3.675782 11.863281-.550782 3.429687 3.121094 3.675781 8.433594.550781 11.863282l-1.066406 1.179687c-2.613282 2.917969-8.753906 9.753906-16.785156 17.933594-12.324219 12.664062-25.699219 24.261719-39.984376 34.664062 22.199219-2.683593 61.835938-15.105469 76.363282-43.980469 2.082031-4.140624 7.125-5.8125 11.269531-3.730468 4.140625 2.085937 5.8125 7.128906 3.730469 11.273437-20.144532 40.027344-74.800782 53.675781-99.859375 53.675781zm0 0"/><path d="m191.175781 402.976562c-5.644531.230469-11.277343-.625-16.597656-2.523437-4.535156-1.527344-7.6875-5.65625-7.96875-10.433594-.167969-5.179687 3.199219-9.558593 9.976563-13.011719 16.722656-9.160156 32.957031-19.179687 48.640624-30.023437 3.839844-2.476563 8.957032-1.425781 11.511719 2.363281 2.550781 3.792969 1.601563 8.929688-2.136719 11.554688-11.523437 7.765625-26.691406 17.664062-39.890624 25.296875 29.472656-2.316407 57.398437-14.136719 79.578124-33.679688 2.25-1.984375 5.386719-2.621093 8.230469-1.664062 2.84375.953125 4.964844 3.351562 5.558594 6.292969.59375 2.941406-.421875 5.976562-2.671875 7.960937-26.144531 23.046875-59.410156 36.417969-94.230469 37.867187zm0 0"/><path d="m297.476562 348.324219c-3.296874-.003907-6.289062-1.933594-7.644531-4.941407-1.359375-3.003906-.828125-6.527343 1.351563-9.003906.246094-.300781.574218-.679687.777344-.882812 3.210937-3.179688 8.359374-3.25 11.652343-.15625 3.296875 3.089844 3.550781 8.234375.578125 11.640625-.246094.300781-.574218.679687-.78125.882812-1.570312 1.578125-3.707031 2.460938-5.933594 2.460938zm0 0"/><path d="m171.601562 377.839844c-16.230468.796875-32.273437-3.761719-45.660156-12.976563-5.277344-3.296875-7.816406-9.625-6.277344-15.65625.957032-3.066406 4.074219-8.351562 14.164063-9.246093 17.617187-2.628907 34.886719-7.207032 51.492187-13.65625 2.570313-.816407 5.375-.386719 7.582032 1.167968 2.203125 1.554688 3.554687 4.054688 3.644531 6.75.015625 3.808594-2.542969 7.144532-6.21875 8.125-15.480469 5.761719-31.410156 10.234375-47.625 13.375 13.835937 6.117188 45.394531 10.753906 83.300781-9.203125 11.574219-6.164062 22.386719-13.65625 32.222656-22.328125.300782-.257812.621094-.496094.949219-.710937 3.503907-2.710938 8.507813-2.234375 11.433594 1.085937 2.929687 3.320313 2.773437 8.34375-.351563 11.480469-.417968.394531-.863281.761719-1.335937 1.089844-10.730469 9.410156-22.511719 17.546875-35.113281 24.246093-19.089844 10.460938-40.441406 16.109376-62.207032 16.457032zm0 0"/><path d="m151.863281 347.160156c-5.738281 0-11.476562-.332031-17.179687-.992187-12.261719-1.175781-24.242188-4.40625-35.433594-9.558594-18.34375-9.335937-17.605469-19.910156-16.441406-24.023437 1.570312-5.535157 7.898437-14.417969 32.210937-12.5 26.679688 1.164062 53.394531-1.3125 79.402344-7.363282 2.917969-.683594 5.984375.242188 8.035156 2.425782 2.054688 2.1875 2.785157 5.300781 1.917969 8.171874-.867188 2.871094-3.199219 5.0625-6.117188 5.746094-27.710937 6.519532-56.199218 9.125-84.632812 7.746094-4.382812-.539062-8.828125-.328125-13.140625.621094 1.902344 1.683594 4.03125 3.089844 6.328125 4.183594 9.421875 4.304687 19.507812 6.96875 29.828125 7.875 16.550781 1.804687 33.292969.652343 49.441406-3.410157.195313-.050781.394531-.097656.585938-.128906 12.472656-2.964844 24.484375-7.601563 35.714843-13.78125 1.359376-.820313 2.917969-1.261719 4.507813-1.285156 3.886719 0 7.269531 2.671875 8.167969 6.457031.898437 3.785156-.921875 7.691406-4.398438 9.4375-12.726562 7.003906-26.347656 12.253906-40.484375 15.597656-.171875.046875-.347656.082032-.523437.109375-12.363282 3.074219-25.050782 4.644531-37.789063 4.671875zm0 0"/><path d="m429.339844 333.257812c-4.277344.015626-7.875-3.195312-8.347656-7.441406-5.886719-34.855468-27.234376-65.171875-58.0625-82.460937-11.640626-6.621094-24.28125-11.292969-37.425782-13.835938-.390625-.066406-.777344-.15625-1.15625-.269531-33.746094-6.691406-71.117187-2.46875-101.179687.921875-16.726563 2.664063-33.6875 3.558594-50.601563 2.671875-3.792968-.417969-8.039062-1.023438-12.449218-1.710938-32.089844-4.847656-84.632813-15.871093-109.617188-26.253906 1.636719 4.050782 3.769531 7.882813 6.347656 11.414063 8.28125 11.640625 28.566406 32.171875 71.394532 38.976562 12.292968 1.890625 24.738281 2.585938 37.164062 2.082031 2.234375-.125 4.425781.667969 6.066406 2.195313 1.636719 1.523437 2.582032 3.65625 2.613282 5.894531.082031 2.226563-.726563 4.390625-2.246094 6.019532-1.515625 1.628906-3.617188 2.585937-5.84375 2.660156-13.507813.542968-27.039063-.21875-40.402344-2.277344-62.933594-9.988281-88.140625-48.179688-92.671875-66.984375-2.769531-11.5 1.402344-16.574219 4.140625-18.566406 4.125-2.804688 9.554688-2.773438 13.644531.085937 14.207031 8.597656 70.839844 21.964844 111.96875 28.164063 4.199219.660156 8.183594 1.234375 11.847657 1.636719 15.636718.65625 31.300781-.242188 46.761718-2.679688 31.417969-3.558594 70.53125-7.964844 107.074219-.566406.261719.058594.515625.125.777344.199218 14.839843 2.910157 29.105469 8.222657 42.238281 15.726563 35.292969 19.84375 59.664062 54.640625 66.246094 94.589844.074218.457031.113281.917969.113281 1.378906.003906 4.644531-3.753906 8.414063-8.394531 8.429687zm0 0"/><path d="m166.636719 311.234375c-18.851563-.082031-37.664063-1.757813-56.230469-5-32.714844-5.574219-52.164062-22.289063-56.925781-36.371094-2.425781-5.851562-1.367188-12.570312 2.746093-17.394531 5.320313-5.0625 13.089844-6.59375 19.933594-3.925781 16.941406 3.472656 34.117188 5.691406 51.382813 6.640625 3.03125.171875 5.726562 1.964844 7.058593 4.691406 1.335938 2.722656 1.09375 5.953125-.628906 8.449219-1.71875 2.496093-4.652344 3.871093-7.671875 3.597656-18.253906-1.085937-36.40625-3.464844-54.320312-7.113281-.902344-.25-1.824219-.414063-2.753907-.484375 1.574219 5.910156 14.382813 20.3125 44 25.367187 26.953126 5.210938 54.554688 6.195313 81.808594 2.910156l4.132813 16.289063s-.585938.144531-1.46875.292969c-10.289063 1.460937-20.671875 2.148437-31.0625 2.050781zm0 0"/><path d="m161.421875 231.234375c-1.140625-.003906-2.265625-.234375-3.3125-.679687-36.679687-15.761719-76-37.605469-89.574219-80.191407-3.359375-10.53125.6875-15.554687 4.679688-17.914062 6.585937-2.558594 14.007812-1.71875 19.851562 2.25l1 .484375c9.863282 4.953125 19.347656 10.628906 28.378906 16.976562 48.304688 32.394532 61.851563 34.171875 126.949219 42.722656l10.230469 1.34375c24.273438 2.410157 48.082031 8.277344 70.695312 17.417969 2.71875 1.265625 4.554688 3.890625 4.816407 6.875.257812 2.988281-1.09375 5.886719-3.550781 7.609375-2.457032 1.71875-5.644532 1.996094-8.363282.726563-21.074218-8.402344-43.230468-13.785157-65.808594-15.992188l-10.199218-1.339843c-65.066406-8.542969-82.546875-10.835938-134.113282-45.410157-8.347656-5.875-17.109374-11.140625-26.214843-15.753906l-.664063-.320313c13.015625 33.117188 46.8125 51.476563 78.507813 65.089844 3.660156 1.574219 5.707031 5.503906 4.90625 9.402344-.800781 3.902344-4.234375 6.699219-8.214844 6.703125zm0 0"/><path d="m253.042969 463.953125c-25.542969.042969-51.058594-1.625-76.378907-4.992187-115.480468-15.6875-169.019531-88.925782-175.457031-113.828126-2.371093-6.148437-1.1953122-13.097656 3.066407-18.121093 6.992187-7.019531 18.046874-4.207031 32.074218-.683594 8.964844 2.640625 18.210938 4.21875 27.542969 4.703125 12.242187-.027344 24.277344-3.203125 34.941406-9.222656 4.023438-2.304688 9.15625-.910156 11.457031 3.117187 2.304688 4.023438.910157 9.152344-3.113281 11.457031-13.1875 7.511719-28.109375 11.453126-43.289062 11.4375-10.71875-.449218-21.34375-2.199218-31.636719-5.214843-4.957031-1.394531-10.007812-2.441407-15.109375-3.140625.074219.429687.179687.925781.328125 1.511718 5.441406 21.070313 55.777344 86.992188 161.449219 101.34375 61.472656 7.808594 123.78125 6.050782 184.714843-5.21875 6.882813-1.335937 13.804688-2.609374 20.710938-3.871093 25.289062-4.679688 85.574219-21.621094 99.109375-77.804688 17.261719-71.589843-16.363281-118.640625-55.304687-173.117187-39.65625-55.410156-50.410157-73.351563-51.179688-94.972656-.558594-13.976563 3.917969-24.117188 12.285156-27.785157 4.550782-1.992187 13.976563-3.523437 26.125 8.625 8.453125 8.148438 18.25 14.773438 28.957032 19.589844 4.027343 1.976563 7.523437 3.523437 10.359374 4.777344l1.902344.84375c3.695313 1.65625 8.769532 4.566406 14.140625 7.648437 4.972657 2.859375 13.300781 7.636719 18.335938 9.777344-.417969-1.472656-1.042969-2.875-1.859375-4.171875-1.773438-2.71875-3.753906-5.300781-5.929688-7.710937-2.929687-3.261719-5.5625-6.777344-7.867187-10.507813-2.84375-5.140625-5.273438-10.5-7.261719-16.027344-.714844-1.84375-1.433594-3.679687-2.183594-5.472656-.65625-1.574219-1.441406-3.179687-2.230468-4.804687-1.761719-3.371094-3.230469-6.890626-4.382813-10.515626-2.113281-7.351562-6.117187-10.417968-18.433594-19l-2.828125-1.976562c-12.589844-8.761719-36.707031-21.441406-56.425781-7.636719-21.199219 14.835938-36.953125 51.023438-11.59375 104.160157 10.058594 21.074218 20.738281 40.746093 30.167969 58.101562 18.082031 33.292969 33.695312 62.046875 38.019531 87.554688 3.484375 17.625 3.929687 35.710937 1.328125 53.484374-1.859375 15.472657-9.867188 29.542969-22.21875 39.042969-2.445312 1.800781-5.675781 2.140625-8.445312.886719-2.765626-1.253906-4.640626-3.902344-4.898438-6.929688-.257812-3.027343 1.140625-5.957031 3.652344-7.664062 8.679687-7.011719 14.214844-17.1875 15.386718-28.285156 2.25-15.867188 1.792969-32-1.351562-47.710938-3.871094-22.773437-18.863281-50.386718-36.230469-82.363281-9.515625-17.539063-20.3125-37.410156-30.558593-58.882813-29.878907-62.617187-9.457032-106.550781 17.117187-125.148437 20.480469-14.328125 48.046875-11.558594 75.664063 7.625l2.808593 1.964844c12.707031 8.859375 21.101563 14.707031 24.96875 28.117187.902344 2.695313 2.019531 5.3125 3.34375 7.828125.933594 1.917969 1.851563 3.828125 2.640625 5.710938.800782 1.925781 1.554688 3.875 2.328125 5.835937 1.671875 4.695313 3.710938 9.253906 6.097657 13.628906 1.824218 2.875 3.886718 5.589844 6.171874 8.113282 2.753907 3.082031 5.257813 6.378906 7.484376 9.863281 2.703124 4.25 4.328124 9.09375 4.738281 14.113281.414062 4.628906-1.140625 9.21875-4.28125 12.640625-2.742188 2.761719-6.535157 4.214844-10.417969 3.992188-6.535156-.289063-15.394531-5.121094-29.210938-13.066407-4.992187-2.859374-9.703124-5.574218-12.628906-6.878906l-1.863281-.824218c-3-1.328126-6.6875-2.96875-10.84375-5.011719-12.417969-5.613281-23.765625-13.339844-33.539063-22.835938-4.328124-4.328125-6.96875-5.128906-7.65625-5.074219-1.996093 3.566407-2.742187 7.695313-2.117187 11.730469.582031 16.367188 8.609375 30.722657 47.714844 85.34375 39.964843 55.917969 77.378906 108.277344 58.320312 187.3125-16.285156 67.597657-90.140625 86.269531-112.390625 90.386719-6.867187 1.257812-13.71875 2.515625-20.578125 3.84375-37.523437 6.925781-75.601562 10.394531-113.757812 10.359375zm0 0"/><path d="m440.757812 103.738281c-.511718 0-1.023437-.046875-1.523437-.140625-4.558594-.835937-7.574219-5.210937-6.738281-9.769531 1.878906-12.453125-2.796875-24.996094-12.371094-33.179687-2.515625-2.523438-3.164062-6.363282-1.617188-9.574219 1.546876-3.210938 4.953126-5.09375 8.496094-4.695313 11.59375 1.492188 23.375-.015625 34.222656-4.378906 2.597657-1.574219 5.84375-1.621094 8.488282-.121094 2.640625 1.5 4.269531 4.308594 4.253906 7.347656-.019531 3.039063-1.675781 5.828126-4.335938 7.300782-8.195312 4.21875-17.230468 6.566406-26.449218 6.867187 5.789062 10.132813 7.847656 21.972657 5.820312 33.46875-.730468 3.980469-4.199218 6.871094-8.246094 6.875zm0 0"/></svg>